HIERARCHY
ROOT Hips
{
    OFFSET 0.000000 0.000000 0.000000
    CHANNELS 6 Xposition Yposition Zposition Zrotation Yrotation Xrotation
    JOINT Chest
    {
        OFFSET 0.000000 1.634758 -0.000000
        CHANNELS 3 Zrotation Yrotation Xrotation
        JOINT Chest2
        {
            OFFSET 0.000000 2.197341 0.000000
            CHANNELS 3 Zrotation Yrotation Xrotation
            JOINT Neck
            {
                OFFSET 0.000000 0.961544 0.000000
                CHANNELS 3 Zrotation Yrotation Xrotation
                JOINT Head
                {
                    OFFSET 0.000000 0.632542 -0.032565
                    CHANNELS 3 Zrotation Yrotation Xrotation
                    End Site
                    {
                        OFFSET -0.000001 0.439502 2.922845
                    }
                }
            }
            JOINT LeftCollar
            {
                OFFSET 0.167536 0.778237 -0.168280
                CHANNELS 3 Zrotation Yrotation Xrotation
                JOINT LeftShoulder
                {
                    OFFSET 0.831514 -0.002900 0.006458
                    CHANNELS 3 Zrotation Yrotation Xrotation
                    JOINT LeftElbow
                    {
                        OFFSET 2.272872 -0.026639 0.059314
                        CHANNELS 3 Zrotation Yrotation Xrotation
                        JOINT LeftWrist
                        {
                            OFFSET 2.081982 -0.024402 0.054333
                            CHANNELS 3 Zrotation Yrotation Xrotation
                            JOINT LeftHandThumb1
                            {
                                OFFSET 0.218903 -0.128645 0.283837
                                CHANNELS 3 Zrotation Yrotation Xrotation
                                JOINT LeftHandThumb2
                                {
                                    OFFSET 0.137157 -0.025101 0.077902
                                    CHANNELS 3 Zrotation Yrotation Xrotation
                                    JOINT LeftHandThumb3
                                    {
                                        OFFSET 0.161892 -0.076693 0.038060
                                        CHANNELS 3 Zrotation Yrotation Xrotation
                                        End Site
                                        {
                                            OFFSET 0.248416 -0.044487 0.090259
                                        }
                                    }
                                }
                            }
                            JOINT LeftHandFore1
                            {
                                OFFSET 0.767340 -0.016076 0.196678
                                CHANNELS 3 Zrotation Yrotation Xrotation
                                JOINT LeftHandFore2
                                {
                                    OFFSET 0.208385 -0.058937 0.009884
                                    CHANNELS 3 Zrotation Yrotation Xrotation
                                    JOINT LeftHandFore3
                                    {
                                        OFFSET 0.076811 -0.103961 0.007416
                                        CHANNELS 3 Zrotation Yrotation Xrotation
                                        End Site
                                        {
                                            OFFSET 0.051727 -0.186125 0.006962
                                        }
                                    }
                                }
                            }
                            JOINT LeftHandMiddle1
                            {
                                OFFSET 0.709887 -0.008320 0.018526
                                CHANNELS 3 Zrotation Yrotation Xrotation
                                JOINT LeftHandMiddle2
                                {
                                    OFFSET 0.131219 -0.206763 0.009718
                                    CHANNELS 3 Zrotation Yrotation Xrotation
                                    JOINT LeftHandMiddle3
                                    {
                                        OFFSET 0.013126 -0.145528 0.005712
                                        CHANNELS 3 Zrotation Yrotation Xrotation
                                        End Site
                                        {
                                            OFFSET -0.128658 -0.197556 0.006991
                                        }
                                    }
                                }
                            }
                            JOINT LeftHandRing1
                            {
                                OFFSET 0.743817 -0.005823 -0.153668
                                CHANNELS 3 Zrotation Yrotation Xrotation
                                JOINT LeftHandRing2
                                {
                                    OFFSET 0.155530 -0.317077 -0.002431
                                    CHANNELS 3 Zrotation Yrotation Xrotation
                                    JOINT LeftHandRing3
                                    {
                                        OFFSET -0.028393 -0.133409 0.001243
                                        CHANNELS 3 Zrotation Yrotation Xrotation
                                        End Site
                                        {
                                            OFFSET -0.085607 -0.084200 -0.001245
                                        }
                                    }
                                }
                            }
                            JOINT LeftHandLittle1
                            {
                                OFFSET 0.689408 -0.053302 -0.308304
                                CHANNELS 3 Zrotation Yrotation Xrotation
                                JOINT LeftHandLittle2
                                {
                                    OFFSET 0.162585 -0.106991 -0.013161
                                    CHANNELS 3 Zrotation Yrotation Xrotation
                                    JOINT LeftHandLittle3
                                    {
                                        OFFSET 0.055687 -0.106265 -0.010141
                                        CHANNELS 3 Zrotation Yrotation Xrotation
                                        End Site
                                        {
                                            OFFSET 0.045702 -0.184712 -0.009019
                                        }
                                    }
                                }
                            }
                        }
                    }
                }
            }
            JOINT RightCollar
            {
                OFFSET -0.167536 0.778237 -0.168280
                CHANNELS 3 Zrotation Yrotation Xrotation
                JOINT RightShoulder
                {
                    OFFSET -0.831514 -0.002900 0.006457
                    CHANNELS 3 Zrotation Yrotation Xrotation
                    JOINT RightElbow
                    {
                        OFFSET -2.272872 -0.026639 0.059313
                        CHANNELS 3 Zrotation Yrotation Xrotation
                        JOINT RightWrist
                        {
                            OFFSET -2.081982 -0.024402 0.054331
                            CHANNELS 3 Zrotation Yrotation Xrotation
                            JOINT RightHandThumb1
                            {
                                OFFSET -0.218911 -0.128571 0.283837
                                CHANNELS 3 Zrotation Yrotation Xrotation
                                JOINT RightHandThumb2
                                {
                                    OFFSET -0.137157 -0.025101 0.077902
                                    CHANNELS 3 Zrotation Yrotation Xrotation
                                    JOINT RightHandThumb3
                                    {
                                        OFFSET -0.168996 -0.064048 0.029626
                                        CHANNELS 3 Zrotation Yrotation Xrotation
                                        End Site
                                        {
                                            OFFSET -0.226202 -0.084097 0.116605
                                        }
                                    }
                                }
                            }
                            JOINT RightHandFore1
                            {
                                OFFSET -0.767344 -0.015991 0.196679
                                CHANNELS 3 Zrotation Yrotation Xrotation
                                JOINT RightHandFore2
                                {
                                    OFFSET -0.208401 -0.058890 0.009884
                                    CHANNELS 3 Zrotation Yrotation Xrotation
                                    JOINT RightHandFore3
                                    {
                                        OFFSET -0.077110 -0.103993 0.001270
                                        CHANNELS 3 Zrotation Yrotation Xrotation
                                        End Site
                                        {
                                            OFFSET -0.052018 -0.186172 0.000847
                                        }
                                    }
                                }
                            }
                            JOINT RightHandMiddle1
                            {
                                OFFSET -0.709887 -0.008302 0.018525
                                CHANNELS 3 Zrotation Yrotation Xrotation
                                JOINT RightHandMiddle2
                                {
                                    OFFSET -0.131196 -0.206773 0.009719
                                    CHANNELS 3 Zrotation Yrotation Xrotation
                                    JOINT RightHandMiddle3
                                    {
                                        OFFSET -0.013273 -0.145620 0.001673
                                        CHANNELS 3 Zrotation Yrotation Xrotation
                                        End Site
                                        {
                                            OFFSET 0.128036 -0.197897 -0.008600
                                        }
                                    }
                                }
                            }
                            JOINT RightHandRing1
                            {
                                OFFSET -0.743819 -0.005785 -0.153669
                                CHANNELS 3 Zrotation Yrotation Xrotation
                                JOINT RightHandRing2
                                {
                                    OFFSET -0.155553 -0.317066 -0.002428
                                    CHANNELS 3 Zrotation Yrotation Xrotation
                                    JOINT RightHandRing3
                                    {
                                        OFFSET 0.027764 -0.132976 -0.012310
                                        CHANNELS 3 Zrotation Yrotation Xrotation
                                        End Site
                                        {
                                            OFFSET 0.085093 -0.083838 -0.012269
                                        }
                                    }
                                }
                            }
                            JOINT RightHandLittle1
                            {
                                OFFSET -0.689403 -0.053298 -0.308303
                                CHANNELS 3 Zrotation Yrotation Xrotation
                                JOINT RightHandLittle2
                                {
                                    OFFSET -0.162591 -0.106988 -0.013161
                                    CHANNELS 3 Zrotation Yrotation Xrotation
                                    JOINT RightHandLittle3
                                    {
                                        OFFSET -0.055770 -0.106400 -0.008016
                                        CHANNELS 3 Zrotation Yrotation Xrotation
                                        End Site
                                        {
                                            OFFSET -0.045306 -0.184093 -0.018599
                                        }
                                    }
                                }
                            }
                        }
                    }
                }
            }
        }
    }
    JOINT LeftHip
    {
        OFFSET 0.685143 0.673822 -0.044491
        CHANNELS 3 Zrotation Yrotation Xrotation
        JOINT LeftKnee
        {
            OFFSET 0.085364 -3.750208 0.017676
            CHANNELS 3 Zrotation Yrotation Xrotation
            JOINT LeftAnkle
            {
                OFFSET 0.094583 -4.155206 0.019585
                CHANNELS 3 Zrotation Yrotation Xrotation
                JOINT LeftToe
                {
                    OFFSET -0.000000 -0.395925 0.621478
                    CHANNELS 3 Zrotation Yrotation Xrotation
                    End Site
                    {
                        OFFSET -0.000000 -0.077878 0.321152
                    }
                }
            }
        }
    }
    JOINT RightHip
    {
        OFFSET -0.685143 0.673822 -0.044492
        CHANNELS 3 Zrotation Yrotation Xrotation
        JOINT RightKnee
        {
            OFFSET -0.085364 -3.750208 0.017677
            CHANNELS 3 Zrotation Yrotation Xrotation
            JOINT RightAnkle
            {
                OFFSET -0.094583 -4.155206 0.019585
                CHANNELS 3 Zrotation Yrotation Xrotation
                JOINT RightToe
                {
                    OFFSET -0.000000 -0.395925 0.621478
                    CHANNELS 3 Zrotation Yrotation Xrotation
                    End Site
                    {
                        OFFSET -0.000000 -0.077878 0.321152
                    }
                }
            }
        }
    }
}
MOTION
Frames: 4
Frame Time: 0.033333
0.338889 8.488379 -0.113745 -172.504288 -2.329703 -173.998138 -3.151878 -1.499489 -9.784015 -0.014870 0.233381 -3.645287 -0.846520 -0.496503 17.705336 0.029257 -0.568003 36.350178 -14.668667 0.333672 0.061182 -58.741062 1.635889 0.273112 -0.000004 0.000000 0.000000 4.412001 -12.605870 24.813709 -0.000003 0.000003 0.000000 -0.000004 -0.000000 -0.000005 -0.000002 0.000002 0.000002 0.000001 -0.000002 0.000000 0.000003 -0.000000 0.000000 -0.000003 0.000003 -0.000002 -0.000002 -0.000002 0.000000 0.000001 -0.000000 0.000002 -0.000003 -0.000000 -0.000002 -0.000003 -0.000002 -0.000002 0.000001 0.000002 -0.000005 -0.000004 0.000002 0.000000 -0.000006 -0.000002 -0.000002 -0.000001 -0.000000 0.000002 -0.000000 -0.000000 -0.000003 14.919203 0.754621 -0.063645 61.322395 -1.757762 2.154716 -0.011345 10.772202 -0.127680 -1.660264 -2.547217 -6.031964 0.000000 0.000001 0.000007 -0.000004 -0.000001 -0.000002 0.000002 -0.000000 0.000001 0.000000 -0.000003 0.000002 -0.000000 -0.000002 0.000001 0.000000 0.000002 -0.000001 -0.000002 -0.000000 0.000000 0.000007 -0.000000 -0.000000 0.000001 -0.000002 0.000000 0.000002 -0.000000 0.000000 0.000002 0.000001 -0.000001 -0.000003 0.000001 0.000001 -0.000004 -0.000003 0.000002 0.000002 -0.000002 0.000000 0.000000 0.000001 -0.000000 6.404491 -8.651373 -0.809312 0.000000 0.000000 0.000000 4.882751 8.286323 -12.224998 0.000000 0.000000 0.000002 12.149018 10.132287 -3.142442 0.000000 -0.000000 0.000000 -13.124044 -10.000565 -7.440395 -0.000002 -0.000000 0.000000
0.338896 8.488374 -0.113751 -172.504349 -2.329755 -173.998489 -3.151969 -1.499365 -9.783673 -0.014762 0.233351 -3.645087 -0.846570 -0.496514 17.704639 0.029262 -0.568105 36.349148 -14.668676 0.333575 0.061171 -58.741245 1.635478 0.273238 0.000001 -0.000000 -0.000000 4.428094 -12.602360 24.740768 0.000003 0.000010 0.000010 0.000000 -0.000000 -0.000007 0.000002 -0.000002 0.000009 0.000002 0.000002 0.000007 0.000001 -0.000000 -0.000003 -0.000004 0.000002 0.000003 -0.000002 0.000002 0.000002 -0.000001 -0.000000 -0.000005 -0.000000 0.000002 -0.000002 -0.000009 0.000010 0.000002 -0.000003 0.000003 0.000002 0.000000 -0.000000 -0.000005 0.000002 0.000003 0.000003 -0.000002 -0.000000 -0.000002 0.000001 -0.000005 0.000000 14.919239 0.754671 -0.063638 61.322308 -1.757695 2.154739 -0.011345 10.772201 -0.127680 -1.719265 -2.561148 -6.030300 0.000002 -0.000008 0.000011 0.000002 -0.000000 -0.000004 0.000000 -0.000000 0.000001 0.000003 -0.000006 0.000006 0.000002 -0.000001 0.000001 0.000000 -0.000003 0.000002 0.000002 -0.000007 0.000005 0.000003 0.000002 0.000001 0.000006 0.000002 0.000002 0.000004 -0.000010 0.000001 -0.000005 0.000001 -0.000001 0.000003 -0.000000 -0.000001 0.000004 -0.000008 0.000004 0.000001 -0.000000 0.000000 0.000002 -0.000003 0.000002 6.404434 -8.652707 -0.864931 0.000002 0.002423 0.106425 4.875412 8.289412 -12.275924 -0.000000 -0.000001 0.000001 12.148958 10.133943 -3.216133 -0.000004 -0.003203 0.140787 -13.112494 -10.014390 -7.506771 0.000001 0.000001 0.000006
0.338917 8.488358 -0.113767 -172.504593 -2.329908 -173.999466 -3.152220 -1.498992 -9.782661 -0.014451 0.233270 -3.644492 -0.846716 -0.496550 17.702600 0.029280 -0.568408 36.346054 -14.668812 0.333296 0.061144 -58.741711 1.634239 0.273630 0.000003 -0.000000 -0.000000 4.475711 -12.592022 24.527487 -0.000006 0.000009 0.000015 0.000000 -0.000000 -0.000003 -0.000001 -0.000002 0.000005 -0.000006 -0.000005 0.000007 0.000004 -0.000000 0.000002 -0.000006 0.000002 -0.000003 0.000002 -0.000002 0.000002 0.000002 -0.000000 0.000000 -0.000003 -0.000000 0.000002 -0.000006 -0.000000 0.000003 0.000006 -0.000002 0.000000 -0.000003 0.000005 -0.000002 -0.000009 -0.000007 0.000005 -0.000004 -0.000000 0.000000 0.000004 -0.000000 -0.000002 14.919191 0.754832 -0.063613 61.322231 -1.756866 2.154791 -0.011341 10.770844 -0.127663 -1.891679 -2.601853 -6.025266 0.000002 -0.000005 0.000009 -0.000002 0.000002 -0.000004 0.000004 -0.000003 0.000000 0.000001 0.000002 0.000001 0.000003 -0.000001 0.000001 -0.000002 0.000003 -0.000001 0.000000 -0.000000 0.000003 0.000003 -0.000002 0.000000 0.000005 -0.000002 -0.000001 0.000000 -0.000000 0.000001 -0.000005 0.000001 0.000000 -0.000003 -0.000001 -0.000001 0.000010 -0.000003 0.000001 0.000001 -0.000001 0.000000 0.000006 -0.000002 0.000001 6.404238 -8.654410 -0.929955 0.000011 0.005280 0.231947 4.866757 8.292948 -12.335991 0.000000 -0.000000 -0.000004 12.148977 10.135379 -3.281030 -0.000014 -0.006056 0.266061 -13.102176 -10.026989 -7.565782 0.000001 0.000000 0.000006
0.338951 8.488333 -0.113794 -172.504990 -2.330165 -174.001114 -3.152649 -1.498376 -9.780979 -0.013935 0.233133 -3.643515 -0.846945 -0.496606 17.699251 0.029304 -0.568894 36.340984 -14.668948 0.332822 0.061102 -58.742565 1.632186 0.274299 0.000002 -0.000000 0.000000 4.553833 -12.575116 24.182178 0.000013 0.000003 0.000012 0.000000 0.000002 -0.000002 0.000003 -0.000003 0.000010 0.000009 0.000002 0.000015 0.000006 -0.000000 0.000002 -0.000006 -0.000002 0.000000 -0.000001 0.000007 0.000003 -0.000004 0.000003 0.000002 -0.000001 -0.000000 0.000002 -0.000011 0.000009 0.000015 -0.000002 0.000002 0.000000 0.000000 0.000003 -0.000002 0.000005 0.000007 0.000012 -0.000002 -0.000000 0.000002 0.000002 0.000003 -0.000002 14.919174 0.755089 -0.063566 61.322014 -1.756058 2.154891 -0.011329 10.769814 -0.127651 -2.170665 -2.667671 -6.016595 -0.000000 0.000005 -0.000004 0.000001 -0.000002 0.000000 0.000001 0.000002 0.000003 -0.000002 0.000001 0.000001 0.000001 -0.000000 0.000001 0.000001 -0.000003 -0.000002 -0.000002 0.000003 0.000001 -0.000002 -0.000000 -0.000000 0.000006 -0.000000 0.000000 -0.000004 -0.000000 -0.000000 -0.000004 -0.000002 0.000000 0.000002 -0.000002 -0.000001 0.000001 -0.000001 0.000003 0.000000 -0.000002 0.000000 0.000002 0.000001 -0.000000 6.403901 -8.656157 -0.990930 0.000025 0.007988 0.350960 4.858552 8.296163 -12.392936 0.000000 -0.000001 0.000002 12.149063 10.136806 -3.347024 -0.000031 -0.008983 0.394633 -13.091549 -10.040188 -7.626299 0.000001 0.000000 0.000007
